<?xml version="1.0" encoding="utf-8"?>
<!-- Generator: Adobe Illustrator 15.0.0, SVG Export Plug-In  -->
<!DOCTYPE svg PUBLIC "-//W3C//DTD SVG 1.1//EN" "http://www.w3.org/Graphics/SVG/1.1/DTD/svg11.dtd" [
	<!ENTITY ns_flows "http://ns.adobe.com/Flows/1.0/">
]>
<svg version="1.1"
	 xmlns="http://www.w3.org/2000/svg" xmlns:xlink="http://www.w3.org/1999/xlink" xmlns:a="http://ns.adobe.com/AdobeSVGViewerExtensions/3.0/"
	 x="0px" y="0px" width="676px" height="275px" viewBox="0 0 676 275" enable-background="new 0 0 676 275" xml:space="preserve">
<defs>
</defs>
<g>
	<defs>
		<rect id="SVGID_1_" width="676.031" height="275.1"/>
	</defs>
	<clipPath id="SVGID_2_">
		<use xlink:href="#SVGID_1_"  overflow="visible"/>
	</clipPath>
	
		<linearGradient id="SVGID_3_" gradientUnits="userSpaceOnUse" x1="0" y1="275.1001" x2="1" y2="275.1001" gradientTransform="matrix(132.723 0 0 -132.723 543.311 36705.4102)">
		<stop  offset="0" style="stop-color:#FDE1A0"/>
		<stop  offset="1" style="stop-color:#A08141"/>
	</linearGradient>
	<path clip-path="url(#SVGID_2_)" fill="url(#SVGID_3_)" d="M650.474,111.664L650.474,111.664l-47.995,88.295l-10.328-88.295
		h-25.151l17.335,117.919c-1.554,2.528-3.854,6.22-6.902,11.075c-4.368,6.948-5.3,8.229-5.493,8.451
		c-1.357,1.552-2.931,2.879-4.673,3.942c-1.616,0.988-4.051,1.489-7.233,1.489c-1.038,0-2.252-0.102-3.606-0.298
		c-1.345-0.197-3.558-0.749-6.58-1.641l-1.809-0.534l-4.436,20.785l1.568,0.449c2.045,0.583,3.827,0.991,5.297,1.211
		c1.509,0.226,3.601,0.336,6.394,0.336c11.454,0,20.39-3.391,26.56-10.081c5.986-6.492,17.369-23.884,34.802-53.172
		c7.245-12.242,16.467-28.264,27.405-47.616c14.643-25.712,24.211-42.432,28.44-49.692l1.529-2.625H650.474L650.474,111.664
		L650.474,111.664h25.123l-1.529,2.625c-4.229,7.26-13.798,23.98-28.44,49.692c-10.938,19.353-20.16,35.374-27.405,47.616
		c-17.433,29.288-28.815,46.68-34.802,53.172c-6.17,6.69-15.105,10.081-26.56,10.081c-2.793,0-4.885-0.11-6.394-0.336
		c-1.47-0.22-3.252-0.628-5.297-1.211l-1.568-0.449l4.436-20.785l1.809,0.534c3.022,0.892,5.235,1.443,6.58,1.641
		c1.354,0.196,2.568,0.298,3.606,0.298c3.183,0,5.617-0.501,7.233-1.489c1.742-1.063,3.315-2.391,4.673-3.942
		c0.194-0.223,1.125-1.503,5.493-8.451c3.049-4.855,5.349-8.547,6.902-11.075l-17.335-117.919h25.151l10.328,88.295L650.474,111.664
		L650.474,111.664z"/>
	
		<linearGradient id="SVGID_4_" gradientUnits="userSpaceOnUse" x1="0" y1="275.0991" x2="1" y2="275.0991" gradientTransform="matrix(174.582 0 0 -174.582 101.9088 48195.7695)">
		<stop  offset="0" style="stop-color:#FDE1A0"/>
		<stop  offset="1" style="stop-color:#A08141"/>
	</linearGradient>
	<path clip-path="url(#SVGID_2_)" fill="url(#SVGID_4_)" d="M275.074,126.385L275.074,126.385
		c-3.4-11.785-13.251-17.76-29.281-17.76c-7.342,0-14.368,1.531-20.881,4.551c-5.732,2.656-11.222,6.611-16.353,11.773
		c-1.452-3.86-3.308-6.932-5.545-9.169c-4.899-4.748-12.175-7.155-21.627-7.155c-8.249,0-16.2,2.253-23.647,6.707
		c-3.202,1.953-6.879,4.803-10.969,8.501l2.682-12.141H127.04l-24.802,116.23h22.611l12.983-61.454
		c2.999-14.115,7.929-23.952,14.653-29.236c6.738-5.296,13.58-7.981,20.336-7.981c7.122,0,11.319,2.204,12.815,6.686
		c0.371,1.235,0.556,2.785,0.556,4.642c0,2.988-0.48,6.771-1.438,11.311l-16.098,76.033h22.925l14.253-67.274
		c2.367-11.23,6.653-19.321,12.74-24.044c6.107-4.738,12.774-7.142,19.816-7.142c4.962,0,8.913,1.274,11.743,3.789
		c1.739,1.547,2.611,4.084,2.611,7.574c0,1.839-0.242,3.942-0.728,6.305l-17.159,80.793h23.35l16.262-76.79
		c1.193-5.649,1.791-10.715,1.791-15.158C276.261,132.359,275.866,129.156,275.074,126.385L275.074,126.385L275.074,126.385
		c0.792,2.771,1.187,5.975,1.187,9.59c0,4.443-0.598,9.508-1.791,15.158l-16.262,76.79h-23.35l17.159-80.793
		c0.485-2.362,0.728-4.466,0.728-6.305c0-3.49-0.872-6.027-2.611-7.574c-2.83-2.515-6.781-3.789-11.743-3.789
		c-7.042,0-13.709,2.404-19.816,7.142c-6.087,4.723-10.373,12.813-12.74,24.044l-14.253,67.274h-22.925l16.098-76.033
		c0.958-4.54,1.438-8.322,1.438-11.311c0-1.856-0.185-3.406-0.556-4.642c-1.496-4.482-5.693-6.686-12.815-6.686
		c-6.756,0-13.598,2.685-20.336,7.981c-6.724,5.284-11.654,15.121-14.653,29.236l-12.983,61.454h-22.611l24.802-116.23h22.413
		l-2.682,12.141c4.09-3.698,7.767-6.548,10.969-8.501c7.447-4.454,15.398-6.707,23.647-6.707c9.452,0,16.728,2.407,21.627,7.155
		c2.237,2.237,4.093,5.309,5.545,9.169c5.131-5.162,10.621-9.117,16.353-11.773c6.513-3.02,13.539-4.551,20.881-4.551
		C261.823,108.625,271.674,114.6,275.074,126.385L275.074,126.385z"/>
	
		<linearGradient id="SVGID_5_" gradientUnits="userSpaceOnUse" x1="0" y1="275.1001" x2="1" y2="275.1001" gradientTransform="matrix(128.38 0 0 -128.38 265.9958 35508.1445)">
		<stop  offset="0" style="stop-color:#FDE1A0"/>
		<stop  offset="1" style="stop-color:#A08141"/>
	</linearGradient>
	<path clip-path="url(#SVGID_2_)" fill="url(#SVGID_5_)" d="M387.312,123.915L387.312,123.915
		c-7.154-10.286-17.564-15.502-30.94-15.502c-8.942,0-17.313,2.214-24.846,6.56c-3.818,2.092-7.594,4.833-11.272,8.18l2.422-11.461
		h-22.078L266.331,273.08h22.607l11.675-55.045c2.38,3.464,4.771,6.063,7.123,7.742c5.291,3.949,12.474,5.952,21.35,5.952
		c11.168,0,21.824-3.487,31.669-10.361c15.463-10.789,25.984-28.94,31.272-53.947c1.417-6.676,2.125-12.836,2.125-18.462
		C394.152,138.851,391.867,130.468,387.312,123.915L387.312,123.915L387.312,123.915c4.556,6.553,6.841,14.936,6.841,25.043
		c0,5.626-0.708,11.786-2.125,18.462c-5.288,25.007-15.81,43.158-31.272,53.947c-9.845,6.874-20.501,10.361-31.669,10.361
		c-8.876,0-16.059-2.003-21.35-5.952c-2.352-1.68-4.743-4.278-7.123-7.742l-11.675,55.045h-22.607l34.266-161.388h22.078
		l-2.422,11.461c3.678-3.347,7.454-6.088,11.272-8.18c7.534-4.346,15.904-6.56,24.846-6.56
		C369.747,108.413,380.157,113.629,387.312,123.915L387.312,123.915z M368.834,168.488L368.834,168.488
		c-3.086,14.402-8.298,25.334-15.493,32.495c-7.1,7.066-14.939,10.649-23.303,10.649c-12.278,0-19.329-5.287-21.559-16.184
		c-0.537-2.455-0.805-5.156-0.805-8.088c0-4.065,0.516-8.575,1.546-13.485c2.277-10.631,5.45-19.497,9.425-26.35
		c7.416-12.725,17.162-18.91,29.794-18.91c12.255,0,19.233,5.653,21.341,17.308c0.483,2.471,0.725,5.158,0.725,8.047
		C370.505,158.36,369.947,163.214,368.834,168.488L368.834,168.488L368.834,168.488c1.113-5.273,1.671-10.128,1.671-14.517
		c0-2.889-0.241-5.576-0.725-8.047c-2.107-11.655-9.086-17.308-21.341-17.308c-12.632,0-22.378,6.185-29.794,18.91
		c-3.975,6.853-7.148,15.719-9.425,26.35c-1.03,4.91-1.546,9.42-1.546,13.485c0,2.932,0.268,5.633,0.805,8.088
		c2.23,10.896,9.281,16.184,21.559,16.184c8.363,0,16.203-3.583,23.303-10.649C360.536,193.822,365.748,182.89,368.834,168.488
		L368.834,168.488z"/>
	
		<linearGradient id="SVGID_6_" gradientUnits="userSpaceOnUse" x1="0" y1="275.1001" x2="1" y2="275.1001" gradientTransform="matrix(56.9634 0 0 -56.9634 393.4327 15819.127)">
		<stop  offset="0" style="stop-color:#FDE1A0"/>
		<stop  offset="1" style="stop-color:#A08141"/>
	</linearGradient>
	<polygon clip-path="url(#SVGID_2_)" fill="url(#SVGID_6_)" points="427.485,69.072 427.485,69.072 393.747,227.921 
		416.355,227.921 450.094,69.072 427.485,69.072 427.485,69.072 427.485,69.072 450.094,69.072 416.355,227.921 393.747,227.921 
		427.485,69.072 	"/>
	
		<linearGradient id="SVGID_7_" gradientUnits="userSpaceOnUse" x1="0" y1="275.1011" x2="1" y2="275.1011" gradientTransform="matrix(48.1837 0 0 -48.1837 439.7842 13425.1484)">
		<stop  offset="0" style="stop-color:#FDE1A0"/>
		<stop  offset="1" style="stop-color:#A08141"/>
	</linearGradient>
	<polygon clip-path="url(#SVGID_2_)" fill="url(#SVGID_7_)" points="440.096,227.921 440.096,227.921 463.02,227.921 
		487.662,111.691 464.737,111.691 440.096,227.921 440.096,227.921 440.096,227.921 464.737,111.691 487.662,111.691 
		463.02,227.921 440.096,227.921 	"/>
	
		<linearGradient id="SVGID_8_" gradientUnits="userSpaceOnUse" x1="0" y1="275.1001" x2="1" y2="275.1001" gradientTransform="matrix(28.9536 0 0 -28.9536 466.1364 8046.7358)">
		<stop  offset="0" style="stop-color:#FDE1A0"/>
		<stop  offset="1" style="stop-color:#A08141"/>
	</linearGradient>
	<polygon clip-path="url(#SVGID_2_)" fill="url(#SVGID_8_)" points="471.857,69.072 471.857,69.072 466.45,94.14 489.377,94.14 
		494.784,69.072 471.857,69.072 471.857,69.072 471.857,69.072 494.784,69.072 489.377,94.14 466.45,94.14 471.857,69.072 	"/>
	
		<linearGradient id="SVGID_9_" gradientUnits="userSpaceOnUse" x1="0" y1="275.1001" x2="1" y2="275.1001" gradientTransform="matrix(76.0615 0 0 -76.0615 493.7753 21071.8887)">
		<stop  offset="0" style="stop-color:#FDE1A0"/>
		<stop  offset="1" style="stop-color:#A08141"/>
	</linearGradient>
	<path clip-path="url(#SVGID_2_)" fill="url(#SVGID_9_)" d="M560.147,111.691L560.147,111.691h-18.815
		c2.355-10.801,4.339-17.614,5.898-20.264c1.418-2.411,4.719-3.634,9.812-3.634c0.752,0,1.557,0.017,2.414,0.052
		c0.868,0.035,2.242,0.121,4.119,0.261l1.52,0.112l4.43-20.759l-1.96-0.179c-1.576-0.143-3.005-0.251-4.293-0.321
		c-1.302-0.073-2.569-0.109-3.798-0.109c-13.152,0-22.913,3.47-29.016,10.318c-3.416,3.86-6.18,9.943-8.227,18.136l-3.512,16.387
		h-15.762l-3.91,18.511h15.756l-20.728,97.719h22.395l20.729-97.719h19.038L560.147,111.691L560.147,111.691L560.147,111.691
		l-3.909,18.511H537.2l-20.729,97.719h-22.395l20.728-97.719h-15.756l3.91-18.511h15.762l3.512-16.387
		c2.048-8.193,4.811-14.276,8.227-18.136c6.103-6.848,15.864-10.318,29.016-10.318c1.229,0,2.496,0.036,3.798,0.109
		c1.288,0.07,2.717,0.178,4.293,0.321l1.96,0.179l-4.43,20.759l-1.52-0.112c-1.878-0.14-3.251-0.226-4.119-0.261
		c-0.857-0.035-1.662-0.052-2.414-0.052c-5.093,0-8.394,1.223-9.812,3.634c-1.56,2.65-3.543,9.463-5.898,20.264H560.147
		L560.147,111.691z"/>
	
		<linearGradient id="SVGID_10_" gradientUnits="userSpaceOnUse" x1="9.765625e-004" y1="275.1001" x2="1.001" y2="275.1001" gradientTransform="matrix(181.842 0 0 -181.842 0.0306 50138.875)">
		<stop  offset="0" style="stop-color:#FDE1A0"/>
		<stop  offset="1" style="stop-color:#A08141"/>
	</linearGradient>
	<path clip-path="url(#SVGID_2_)" fill="url(#SVGID_10_)" d="M155.047,0.25L155.047,0.25l-64.798,111.44H29.271l-5.582-42.62H0.291
		l23.897,158.852h23.897L181.406,0.25H155.047L155.047,0.25L155.047,0.25h26.359L48.085,227.921H24.188L0.291,69.07h23.398
		l5.582,42.62h60.978L155.047,0.25L155.047,0.25z M41.308,197.724L41.308,197.724l-8.412-65.409h45.726L41.308,197.724
		L41.308,197.724L41.308,197.724l37.314-65.409H32.896L41.308,197.724L41.308,197.724z"/>
</g>
</svg>
