<?xml version="1.0" encoding="utf-8"?>
<!-- Generator: Adobe Illustrator 15.0.0, SVG Export Plug-In  -->
<!DOCTYPE svg PUBLIC "-//W3C//DTD SVG 1.1//EN" "http://www.w3.org/Graphics/SVG/1.1/DTD/svg11.dtd" [
	<!ENTITY ns_flows "http://ns.adobe.com/Flows/1.0/">
]>
<svg version="1.1"
	 xmlns="http://www.w3.org/2000/svg" xmlns:xlink="http://www.w3.org/1999/xlink" xmlns:a="http://ns.adobe.com/AdobeSVGViewerExtensions/3.0/"
	 x="0px" y="0px" width="140px" height="140px" viewBox="0 0 140 140" enable-background="new 0 0 140 140" xml:space="preserve">
<defs>
</defs>
<g>
	<defs>
		<circle id="SVGID_2_" cx="69.906" cy="69.906" r="69.906"/>
	</defs>
	<clipPath id="SVGID_3_">
		<use xlink:href="#SVGID_2_"  overflow="visible"/>
	</clipPath>
	
		<linearGradient id="SVGID_4_" gradientUnits="userSpaceOnUse" x1="-4.882813e-004" y1="139.812" x2="0.9995" y2="139.812" gradientTransform="matrix(0 139.8122 139.8122 0 -19477.5059 0.0216)">
		<stop  offset="0" style="stop-color:#FDE1A0"/>
		<stop  offset="1" style="stop-color:#A08141"/>
	</linearGradient>
	<rect clip-path="url(#SVGID_3_)" fill="url(#SVGID_4_)" width="139.812" height="139.812"/>
</g>
<g>
	<defs>
		<rect id="SVGID_1_" width="139.812" height="139.812"/>
	</defs>
	<clipPath id="SVGID_5_">
		<use xlink:href="#SVGID_1_"  overflow="visible"/>
	</clipPath>
	<path clip-path="url(#SVGID_5_)" fill="#231F20" d="M78.303,65.464c0-5.222-4.249-9.471-9.472-9.471
		c-5.222,0-9.471,4.249-9.471,9.471c0,5.222,4.249,9.471,9.471,9.471C74.054,74.935,78.303,70.686,78.303,65.464 M67.098,65.464
		c0-0.885,0.668-1.616,1.525-1.72l4.154-4.002l-2.281,5.242c0.044,0.152,0.068,0.313,0.068,0.48c0,0.956-0.777,1.733-1.733,1.733
		C67.876,67.197,67.098,66.42,67.098,65.464"/>
	<path clip-path="url(#SVGID_5_)" fill="#231F20" d="M76.895,38.148c0.128,0.128,0.326,0.14,0.439,0.027
		c0.114-0.114,0.102-0.312-0.026-0.44l-2.288-2.288c-0.128-0.128-0.325-0.14-0.438-0.026c-0.114,0.113-0.103,0.311,0.025,0.439
		L76.895,38.148z"/>
	<path clip-path="url(#SVGID_5_)" fill="#231F20" d="M31.037,68.539c-0.52-0.253-1.041-0.507-1.561-0.76
		c-0.173-0.084-0.345-0.168-0.518-0.252l-0.178-0.086c-0.018,0.011-0.037,0.021-0.056,0.031v4.273
		c1.297-0.912,2.684-1.698,4.135-2.319C32.252,69.13,31.644,68.835,31.037,68.539"/>
	<path clip-path="url(#SVGID_5_)" fill="#231F20" d="M34.635,55.804h20.128V39.663H34.635V55.804z M47.975,42.642h4.227v2.875
		h-4.227V42.642z M47.975,46.918h4.227v2.875h-4.227V46.918z M41.86,42.642h4.227v2.875H41.86V42.642z M41.86,46.918h4.227v2.875
		H41.86V46.918z M41.86,51.195h4.227v2.875H41.86V51.195z M35.746,42.642h4.227v2.875h-4.227V42.642z M35.746,46.918h4.227v2.875
		h-4.227V46.918z M35.746,51.195h4.227v2.875h-4.227V51.195z"/>
	<path clip-path="url(#SVGID_5_)" fill="#231F20" d="M106.864,75.958c-2.37,0-4.299,1.928-4.299,4.299
		c0,2.37,1.929,4.298,4.299,4.298s4.298-1.928,4.298-4.298C111.162,77.886,109.234,75.958,106.864,75.958"/>
	<path clip-path="url(#SVGID_5_)" fill="#231F20" d="M121.845,80.257c0,0.101,0.008,0.199,0.015,0.299l4.583-4.582
		c-0.099-0.007-0.198-0.016-0.299-0.016C123.772,75.958,121.845,77.887,121.845,80.257"/>
	<path clip-path="url(#SVGID_5_)" fill="#231F20" d="M83.328,85.415c0.123,0.1,0.264,0.179,0.418,0.233
		c0.153,0.055,0.32,0.085,0.495,0.085h2.156c0.156-0.521,0.642-0.9,1.214-0.9c0.094,0,0.184,0.01,0.271,0.028l2.579-2.361
		l-1.718,3.03c0.032,0.065,0.06,0.134,0.082,0.203h1.951c0.176,0,0.343-0.03,0.496-0.085c0.154-0.055,0.295-0.134,0.418-0.233
		c0.798-0.646,0.337-1.423-0.151-2.145c-0.279-0.413-0.627-0.78-1.031-1.088s-0.864-0.555-1.368-0.728s-1.052-0.27-1.631-0.274
		c-0.58,0.005-1.128,0.102-1.631,0.274c-0.504,0.173-0.964,0.42-1.368,0.728s-0.752,0.675-1.031,1.088
		C82.991,83.993,82.531,84.767,83.328,85.415"/>
	<path clip-path="url(#SVGID_5_)" fill="#231F20" d="M80.03,122.115v-4.595c0-0.143,0.114-0.258,0.257-0.258h4.867l1.683-1.684
		v-7.464c0-0.142,0.115-0.258,0.257-0.258h4.939c0.142,0,0.258,0.116,0.258,0.258v2.01l27.805-27.806
		c-0.221-0.647-0.347-1.34-0.347-2.062c0-3.526,2.868-6.395,6.394-6.395c0.723,0,1.414,0.126,2.063,0.348l2.917-2.917
		c0.901-0.901,0.901-2.362,0-3.265l-7.811-7.81c0.03,0.175,0.05,0.354,0.05,0.537c0,1.727-1.399,3.127-3.126,3.127
		s-3.126-1.4-3.126-3.127c0-1.726,1.399-3.125,3.126-3.125c0.184,0,0.362,0.019,0.537,0.049L93.676,30.583L81.962,42.298
		c-0.893,0.893-2.357,0.889-3.254-0.008l-8.271-8.271c-0.897-0.898-0.9-2.362-0.008-3.254L82.143,19.05l-8.577-8.577
		c-0.546-0.546-1.322-0.845-2.083-0.703c-1.102,0.207-1.858,1.157-1.858,2.23v10.481l-0.043,0.043H31.033
		c-1.275,0-2.309,1.033-2.309,2.308v38.84c0.298-0.115,0.608-0.144,0.931-0.163c0.386-0.022,0.795,0.151,1.151,0.278
		c0.299,0.107,0.596,0.219,0.891,0.338c0.71,0.286,1.41,0.597,2.105,0.916c1.469,0.673,2.919,1.387,4.362,2.115
		c1.008,0.508,2.063,0.984,3.017,1.59c0.915,0.581,1.729,1.306,2.396,2.162c0.586,0.752,1.092,1.63,1.272,2.578
		c0.014,0.062,0.028,0.131,0.04,0.22c-1.375,0.613-3.081,0.686-4.516,0.241c-0.71-0.219-1.344-0.609-2.009-0.931
		c-0.693-0.33-1.425-0.541-2.189-0.623c-1.008-0.107-2.063-0.065-3.041,0.214c-0.687,0.196-1.307,0.533-1.937,0.858
		c-0.707,0.364-1.436,0.619-2.23,0.703c-0.08,0.009-0.162,0.01-0.243,0.016v1.86c1.56-0.007,2.304-0.395,3.16-0.846
		c0.908-0.478,1.936-1.02,3.894-1.02s2.987,0.542,3.895,1.02c0.864,0.455,1.61,0.848,3.199,0.848c1.589,0,2.335-0.394,3.199-0.848
		c0.908-0.478,1.937-1.02,3.895-1.02s2.987,0.542,3.895,1.02c0.864,0.454,1.611,0.848,3.2,0.848c0.412,0,0.747,0.335,0.747,0.746
		c0,0.412-0.335,0.747-0.747,0.747c-1.958,0-2.987-0.542-3.895-1.02c-0.864-0.454-1.61-0.847-3.2-0.847
		c-1.589,0-2.335,0.393-3.199,0.847c-0.908,0.478-1.937,1.02-3.895,1.02s-2.987-0.542-3.895-1.02
		c-0.864-0.454-1.61-0.847-3.199-0.847s-2.335,0.393-3.199,0.847c-0.901,0.475-1.924,1.011-3.855,1.018v36.953
		c0,1.275,1.034,2.309,2.309,2.309h14.389l3.885-3.916c0,0,14.253-14.41,14.434-14.571c0.195-0.174,0.203-0.489-0.005-0.663
		l-1.875-2.041c-0.159-0.171-0.453-0.16-0.605-0.034c0,0-2.852,2.494-3.065,2.661c-0.407,0.32-1.262,0.371-1.738-0.2
		c-0.461-0.554-0.443-1.313,0.057-1.712l4.299-3.938c0.665-0.477,1.688-0.282,2.09,0.103c0.345,0.33,4.586,4.599,5.76,5.837
		c0.394,0.415,0.677,0.992,0.664,1.632c-0.011,0.408-0.035,0.85-0.035,0.85l-0.08,3.244c-0.002,0.136,0.123,0.308,0.258,0.299
		l5.003-0.376c0.601-0.053,1.187,0.32,1.293,1.21c0.121,1.018-0.659,1.432-1.151,1.467l-4.469,0.367l-2.443,0.192
		c-0.418,0.03-1.256-0.517-1.35-1.224c-0.036-0.264-0.073-0.562-0.061-0.645l0.015-1.248c0.014-0.358-0.172-0.335-0.319-0.19
		l-2.334,2.3c-0.087,0.086-0.132,0.314-0.053,0.406c0.564,0.655,4.874,5.538,4.874,5.538c0.424,0.526,0.428,1.298,0.248,1.884
		c-0.219,0.662-1.012,1.188-1.595,1.248c-0.236,0.021-5.906,0.342-5.906,0.342c-0.055,0.003-0.08,0.001-0.133-0.005l-0.063-0.001
		l-3.227,0.2c-0.629,0.035-1.421-0.598-1.4-1.458c0.018-0.708,0.644-1.428,1.273-1.463l6.616-0.351
		c0.234-0.032,0.182-0.192,0.086-0.296c0,0-1.867-1.948-1.939-2.024c-0.159-0.17-1.769-1.849-1.833-1.913
		c-0.373-0.38-0.567-0.536-0.965-0.52c-0.092,0.004-0.363,0.049-0.564,0.249l-9.105,8.761h19.618l0.043,0.043v10.352
		c0,0.876,0.437,1.73,1.213,2.135c0.334,0.176,0.695,0.26,1.052,0.26c0.589,0,1.169-0.23,1.603-0.663l6.622-6.622
		C80.062,122.256,80.03,122.19,80.03,122.115 M106.864,86.651c-3.526,0-6.396-2.868-6.396-6.394c0-3.526,2.869-6.395,6.396-6.395
		c3.525,0,6.394,2.868,6.394,6.395C113.258,83.783,110.39,86.651,106.864,86.651 M116.869,63.475c0.143,0.12,0.263,0.257,0.36,0.405
		c0.102,0.129,0.18,0.279,0.226,0.447c0.765,2.795,2.798,5.871,8.15,4.66c0.677-0.154,1.352,0.271,1.505,0.948
		c0.152,0.678-0.271,1.351-0.949,1.505c-0.961,0.217-1.881,0.324-2.752,0.324c-3.282,0-5.876-1.514-7.406-4.319L113.022,71
		c3.423,1.972,5.411,5.608,5.099,9.662c-0.06,0.771-0.702,1.355-1.461,1.355l-0.114-0.005c-0.808-0.063-1.413-0.768-1.35-1.575
		c0.263-3.416-1.729-6.589-5.104-7.555c-0.274-0.079-0.547-0.193-0.782-0.391c-0.798-0.669-0.902-1.859-0.232-2.657l5.134-6.126
		C114.881,62.911,116.071,62.806,116.869,63.475 M103.264,47.283c0-0.142,0.116-0.257,0.258-0.257h4.939
		c0.142,0,0.257,0.115,0.257,0.257v14c0,0.143-0.115,0.258-0.257,0.258h-4.939c-0.142,0-0.258-0.115-0.258-0.258V47.283z
		 M96.458,56.688c0-0.142,0.115-0.258,0.257-0.258h4.939c0.142,0,0.258,0.116,0.258,0.258v4.595c0,0.143-0.116,0.258-0.258,0.258
		h-4.939c-0.142,0-0.257-0.115-0.257-0.258V56.688z M89.651,54.369c0-0.142,0.114-0.258,0.257-0.258h4.938
		c0.143,0,0.258,0.116,0.258,0.258v6.914c0,0.143-0.115,0.258-0.258,0.258h-4.938c-0.143,0-0.257-0.115-0.257-0.258V54.369z
		 M85.313,43.719c0-0.712,0.577-1.289,1.289-1.289c0.711,0,1.288,0.577,1.288,1.289v19.282h21.859c0.711,0,1.288,0.577,1.288,1.288
		c0,0.712-0.577,1.289-1.288,1.289H86.602c-0.712,0-1.289-0.577-1.289-1.289V43.719z M72.716,47.202v3.248h-2.119v1.434h-3.531
		V50.45h-2.119v-3.248H72.716z M69.081,29.904c0.296,0.334,0.005,0.817-0.244,1.03c-0.313,0.267-0.542,0.637-0.63,1.071
		c-0.152,0.752,0.159,1.494,0.738,1.928c0.22,0.165,0.384,0.698,0.149,0.949c-0.483,0.515-1.137,0.106-1.388-0.151
		c-0.755-0.769-1.127-1.884-0.898-3.016c0.135-0.667,0.461-1.246,0.909-1.692C67.965,29.775,68.652,29.42,69.081,29.904
		 M65.902,27.79c0.29-0.23,0.76-0.195,1.045,0.077l0.022,0.021c0.285,0.272,0.283,0.663-0.004,0.869l-0.23,0.225
		c-0.654,0.642-1.131,1.478-1.326,2.443c-0.332,1.636,0.222,3.253,1.33,4.354l0.233,0.23c0.293,0.214,0.301,0.61,0.018,0.88
		l-0.022,0.02c-0.283,0.271-0.766,0.29-1.072,0.044c0,0-0.036-0.03-0.297-0.304c-1.346-1.426-2.006-3.458-1.589-5.514
		c0.247-1.22,0.84-2.282,1.655-3.105L65.902,27.79z M61.212,30.555c0.36-1.781,1.225-3.33,2.415-4.533l0.225-0.228
		c0.268-0.229,0.718-0.195,1.003,0.077l0.009,0.008c0.285,0.272,0.317,0.66,0.072,0.863l-0.208,0.204
		c-1.044,1.023-1.805,2.358-2.117,3.899c-0.519,2.562,0.319,5.094,2.019,6.849l0.243,0.251c0.296,0.249,0.305,0.673,0.021,0.943
		l-0.008,0.008c-0.284,0.271-0.758,0.28-1.054,0.021c0,0-0.02-0.017-0.275-0.286C61.574,36.55,60.601,33.57,61.212,30.555
		 M48.922,33.369c0-0.814,0.66-1.474,1.474-1.474s1.474,0.66,1.474,1.474v2.41c0,0.814-0.66,1.474-1.474,1.474
		s-1.474-0.66-1.474-1.474V33.369z M37.526,33.369c0-0.814,0.66-1.474,1.474-1.474c0.815,0,1.475,0.66,1.475,1.474v2.41
		c0,0.814-0.66,1.474-1.475,1.474c-0.814,0-1.474-0.66-1.474-1.474V33.369z M47.633,72.157c-2.551,0-4.62-2.069-4.62-4.62
		c0-2.552,2.069-4.621,4.62-4.621c2.552,0,4.621,2.069,4.621,4.621C52.254,70.088,50.185,72.157,47.633,72.157 M54.338,57.823
		H35.059c-1.312,0-2.375-1.064-2.375-2.375V37.215c0-1.311,1.063-2.375,2.375-2.375h1.842v0.939c0,1.157,0.942,2.099,2.099,2.099
		c1.158,0,2.099-0.942,2.099-2.099V34.84h7.198v0.939c0,1.157,0.941,2.099,2.099,2.099c1.158,0,2.099-0.942,2.099-2.099V34.84h1.843
		c1.311,0,2.375,1.064,2.375,2.375v18.233C56.713,56.759,55.649,57.823,54.338,57.823 M57.919,92.862H44.682v6.089
		c0,0.153-0.123,0.276-0.276,0.276h-1.899c-0.153,0-0.276-0.123-0.276-0.276v-6.089h-0.949v9.495c0,0.153-0.124,0.276-0.277,0.276
		h-1.899c-0.152,0-0.276-0.123-0.276-0.276v-9.495h-0.949v4.708c0,0.153-0.124,0.277-0.277,0.277h-1.899
		c-0.152,0-0.276-0.124-0.276-0.277v-4.708h-0.937v9.643c0,0.763-0.619,1.381-1.381,1.381c-0.763,0-1.381-0.618-1.381-1.381V80.457
		c0-0.762,0.618-1.38,1.381-1.38c0.762,0,1.381,0.618,1.381,1.38V90.1h11.245v-3.504c0-0.153,0.124-0.276,0.276-0.276h1.9
		c0.152,0,0.276,0.123,0.276,0.276V90.1h0.949v-5.917c0-0.152,0.124-0.276,0.276-0.276h1.9c0.152,0,0.276,0.124,0.276,0.276V90.1
		h0.949v-8.85c0-0.151,0.124-0.275,0.276-0.275h1.9c0.152,0,0.275,0.124,0.275,0.275v8.85h2.929c0.763,0,1.381,0.618,1.381,1.381
		C59.3,92.243,58.682,92.862,57.919,92.862 M56.279,65.464c0-6.933,5.62-12.553,12.552-12.553c1.58,0,3.09,0.295,4.481,0.827
		l1.353-2.41l3.08,1.727l-1.344,2.397c3.025,2.292,4.982,5.923,4.982,10.012c0,6.932-5.62,12.552-12.553,12.552
		C61.899,78.016,56.279,72.396,56.279,65.464 M71.383,96.691c-1.829,0-3.311-1.486-3.311-3.319s1.482-3.318,3.311-3.318
		c1.828,0,3.311,1.485,3.311,3.318S73.211,96.691,71.383,96.691 M75.285,87.221c-0.166-1.025,0.067-1.971,0.604-2.659
		c0.536-0.688,1.373-1.12,2.413-1.12h1.829c2.577,0,1.636-1.104,4-2.749c0.972-0.676,2.153-1.072,3.426-1.072
		c1.273,0,2.454,0.396,3.427,1.072c2.362,1.643,1.423,2.749,3.998,2.749h1.827c2.079,0,3.378,1.745,3.019,3.779l-1.924,14.169
		c-0.277,2.042-1.72,3.018-3.78,3.018H80.806c-2.061,0-3.445-0.967-3.779-3.018L75.285,87.221z M78.677,122.115
		c0,0.143-0.115,0.258-0.258,0.258H73.48c-0.143,0-0.258-0.115-0.258-0.258v-6.914c0-0.142,0.115-0.258,0.258-0.258h4.938
		c0.143,0,0.258,0.116,0.258,0.258V122.115z"/>
	
		<rect x="74.979" y="24.196" transform="matrix(-0.7071 0.7071 -0.7071 -0.7071 162.2913 -6.8387)" clip-path="url(#SVGID_5_)" fill="#231F20" width="15.166" height="11.996"/>
	<path clip-path="url(#SVGID_5_)" fill="#231F20" d="M80.579,102.668h5.594h0.599h7.741c0,0,1.249-0.3,1.648-1.747l1.398-11.188
		c0,0-0.1-1.049-1.049-1.049h-9.739h-0.599h-7.592c-0.949,0-1.05,1.049-1.05,1.049l1.399,11.188
		C79.33,102.369,80.579,102.668,80.579,102.668"/>
</g>
</svg>
